ffmpeg started on 2016-11-30 at 15:35:26
Report written to "Output/x264/results/ffmpeg/old_town_cross_2160p50fast3500k.log"
Command line:
Tools/ffmpeg/ffmpeg -benchmark -y -i Input/y4m/old_town_cross_2160p50.y4m -c:v libx264 -preset fast -b:v 3500k -an Output/x264/encoded/old_town_cross_2160p50fast3500k.mkv
ffmpeg version N-82227-gdb23fde Copyright (c) 2000-2016 the FFmpeg developers
  built with gcc 5.4.0 (Ubuntu 5.4.0-6ubuntu1~16.04.2) 20160609
  configuration: --prefix=/home/jaroslav/ffmpeg_build --pkg-config-flags=--static --extra-cflags=-I/home/jaroslav/ffmpeg_build/include --extra-ldflags=-L/home/jaroslav/ffmpeg_build/lib --bindir=/home/jaroslav/bin --enable-gpl --enable-libass --enable-libfdk-aac --enable-libfreetype --enable-libmp3lame --enable-libopus --enable-libtheora --enable-libvorbis --enable-libvpx --enable-libx264 --enable-libx265 --enable-nvenc --enable-libmfx --enable-libxvid --enable-libgsm --enable-libopencore-amrnb --enable-version3 --enable-nonfree
  libavutil      55. 35.100 / 55. 35.100
  libavcodec     57. 66.101 / 57. 66.101
  libavformat    57. 57.100 / 57. 57.100
  libavdevice    57.  2.100 / 57.  2.100
  libavfilter     6. 66.100 /  6. 66.100
  libswscale      4.  3.100 /  4.  3.100
  libswresample   2.  4.100 /  2.  4.100
  libpostproc    54.  2.100 / 54.  2.100
Input #0, yuv4mpegpipe, from 'Input/y4m/old_town_cross_2160p50.y4m':
  Duration: 00:00:10.00, start: 0.000000, bitrate: 4976642 kb/s
    Stream #0:0: Video: rawvideo (I420 / 0x30323449), yuv420p(progressive), 3840x2160, SAR 1:1 DAR 16:9, 50 fps, 50 tbr, 50 tbn, 50 tbc
[libx264 @ 0x4621120] using SAR=1/1
[libx264 @ 0x4621120] using cpu capabilities: MMX2 SSE2Fast SSSE3 SSE4.2 AVX FMA3 AVX2 LZCNT BMI2
[libx264 @ 0x4621120] profile High, level 5.2
[libx264 @ 0x4621120] 264 - core 148 - H.264/MPEG-4 AVC codec - Copyleft 2003-2016 - http://www.videolan.org/x264.html - options: cabac=1 ref=2 deblock=1:0:0 analyse=0x3:0x113 me=hex subme=6 psy=1 psy_rd=1.00:0.00 mixed_ref=1 me_range=16 chroma_me=1 trellis=1 8x8dct=1 cqm=0 deadzone=21,11 fast_pskip=1 chroma_qp_offset=-2 threads=6 lookahead_threads=1 sliced_threads=0 nr=0 decimate=1 interlaced=0 bluray_compat=0 constrained_intra=0 bframes=3 b_pyramid=2 b_adapt=1 b_bias=0 direct=1 weightb=1 open_gop=0 weightp=1 keyint=250 keyint_min=25 scenecut=40 intra_refresh=0 rc_lookahead=30 rc=abr mbtree=1 bitrate=3500 ratetol=1.0 qcomp=0.60 qpmin=0 qpmax=69 qpstep=4 ip_ratio=1.40 aq=1:1.00
Output #0, matroska, to 'Output/x264/encoded/old_town_cross_2160p50fast3500k.mkv':
  Metadata:
    encoder         : Lavf57.57.100
    Stream #0:0: Video: h264 (libx264) (H264 / 0x34363248), yuv420p, 3840x2160 [SAR 1:1 DAR 16:9], q=-1--1, 3500 kb/s, 50 fps, 1k tbn, 50 tbc
    Metadata:
      encoder         : Lavc57.66.101 libx264
    Side data:
      cpb: bitrate max/min/avg: 0/0/3500000 buffer size: 0 vbv_delay: -1
Stream mapping:
  Stream #0:0 -> #0:0 (rawvideo (native) -> h264 (libx264))
Press [q] to stop, [?] for help
frame=   37 fps= 20 q=0.0 size=       0kB time=00:00:00.00 bitrate=N/A speed=   0x    frame=   46 fps= 19 q=47.0 size=       1kB time=00:00:00.06 bitrate=  96.3kbits/s speed=0.025x    frame=   57 fps= 19 q=44.0 size=       1kB time=00:00:00.28 bitrate=  20.9kbits/s speed=0.0953x    frame=   66 fps= 18 q=43.0 size=       1kB time=00:00:00.46 bitrate=  12.7kbits/s speed=0.126x    frame=   76 fps= 18 q=42.0 size=       1kB time=00:00:00.66 bitrate=   8.9kbits/s speed=0.159x    frame=   86 fps= 18 q=41.0 size=       1kB time=00:00:00.86 bitrate=   6.8kbits/s speed=0.177x    frame=   97 fps= 18 q=41.0 size=       1kB time=00:00:01.08 bitrate=   5.4kbits/s speed=0.201x    frame=  106 fps= 17 q=41.0 size=       1kB time=00:00:01.26 bitrate=   4.7kbits/s speed=0.208x    frame=  117 fps= 18 q=41.0 size=       1kB time=00:00:01.48 bitrate=   4.0kbits/s speed=0.225x    frame=  126 fps= 17 q=41.0 size=       1kB time=00:00:01.66 bitrate=   3.5kbits/s speed=0.228x    frame=  137 fps= 18 q=40.0 size=       1kB time=00:00:01.88 bitrate=   3.1kbits/s speed=0.241x    frame=  146 fps= 17 q=40.0 size=       1kB time=00:00:02.06 bitrate=   2.8kbits/s speed=0.243x    frame=  157 fps= 17 q=40.0 size=       1kB time=00:00:02.28 bitrate=   2.6kbits/s speed=0.253x    frame=  166 fps= 17 q=40.0 size=       1kB time=00:00:02.46 bitrate=   2.4kbits/s speed=0.254x    frame=  177 fps= 17 q=40.0 size=       1kB time=00:00:02.68 bitrate=   2.2kbits/s speed=0.263x    frame=  186 fps= 17 q=40.0 size=       1kB time=00:00:02.86 bitrate=   2.1kbits/s speed=0.262x    frame=  197 fps= 17 q=40.0 size=       1kB time=00:00:03.08 bitrate=   1.9kbits/s speed=0.27x    frame=  206 fps= 17 q=40.0 size=       1kB time=00:00:03.26 bitrate=   1.8kbits/s speed=0.269x    frame=  217 fps= 17 q=40.0 size=       1kB time=00:00:03.48 bitrate=   1.7kbits/s speed=0.276x    frame=  226 fps= 17 q=40.0 size=       1kB time=00:00:03.66 bitrate=   1.6kbits/s speed=0.275x    frame=  236 fps= 17 q=40.0 size=       1kB time=00:00:03.86 bitrate=   1.5kbits/s speed=0.279x    frame=  246 fps= 17 q=40.0 size=       1kB time=00:00:04.06 bitrate=   1.4kbits/s speed=0.279x    frame=  252 fps= 16 q=40.0 size=       1kB time=00:00:04.18 bitrate=   1.4kbits/s speed=0.267x    frame=  254 fps= 16 q=40.0 size=       1kB time=00:00:04.22 bitrate=   1.4kbits/s speed=0.259x    frame=  256 fps= 15 q=40.0 size=       1kB time=00:00:04.26 bitrate=   1.4kbits/s speed=0.253x    frame=  261 fps= 15 q=40.0 size=       1kB time=00:00:04.36 bitrate=   1.3kbits/s speed=0.25x    frame=  266 fps= 15 q=40.0 size=       1kB time=00:00:04.46 bitrate=   1.3kbits/s speed=0.247x    frame=  271 fps= 15 q=40.0 size=       1kB time=00:00:04.56 bitrate=   1.3kbits/s speed=0.245x    frame=  276 fps= 14 q=40.0 size=       1kB time=00:00:04.66 bitrate=   1.3kbits/s speed=0.242x    frame=  281 fps= 14 q=40.0 size=       1kB time=00:00:04.76 bitrate=   1.2kbits/s speed=0.24x    frame=  286 fps= 14 q=41.0 size=       1kB time=00:00:04.86 bitrate=   1.2kbits/s speed=0.239x    frame=  295 fps= 14 q=41.0 size=    1969kB time=00:00:05.04 bitrate=3199.8kbits/s speed=0.241x    frame=  305 fps= 14 q=41.0 size=    1969kB time=00:00:05.24 bitrate=3077.6kbits/s speed=0.244x    frame=  315 fps= 14 q=40.0 size=    1969kB time=00:00:05.44 bitrate=2964.5kbits/s speed=0.246x    frame=  324 fps= 14 q=40.0 size=    1969kB time=00:00:05.62 bitrate=2869.6kbits/s speed=0.248x    frame=  334 fps= 14 q=40.0 size=    1969kB time=00:00:05.82 bitrate=2771.0kbits/s speed=0.251x    frame=  343 fps= 14 q=40.0 size=    1969kB time=00:00:06.00 bitrate=2687.9kbits/s speed=0.251x    frame=  354 fps= 15 q=40.0 size=    1969kB time=00:00:06.22 bitrate=2592.8kbits/s speed=0.255x    frame=  363 fps= 14 q=40.0 size=    1969kB time=00:00:06.40 bitrate=2519.9kbits/s speed=0.255x    frame=  373 fps= 15 q=40.0 size=    1969kB time=00:00:06.60 bitrate=2443.6kbits/s speed=0.258x    frame=  383 fps= 15 q=40.0 size=    1969kB time=00:00:06.80 bitrate=2371.7kbits/s speed=0.259x    frame=  393 fps= 15 q=40.0 size=    1969kB time=00:00:07.00 bitrate=2303.9kbits/s speed=0.261x    frame=  403 fps= 15 q=40.0 size=    1969kB time=00:00:07.20 bitrate=2240.0kbits/s speed=0.262x    frame=  414 fps= 15 q=40.0 size=    1969kB time=00:00:07.42 bitrate=2173.6kbits/s speed=0.265x    frame=  423 fps= 15 q=40.0 size=    1969kB time=00:00:07.60 bitrate=2122.1kbits/s speed=0.265x    frame=  434 fps= 15 q=40.0 size=    1969kB time=00:00:07.82 bitrate=2062.4kbits/s speed=0.268x    frame=  443 fps= 15 q=41.0 size=    1969kB time=00:00:08.00 bitrate=2016.0kbits/s speed=0.267x    frame=  453 fps= 15 q=41.0 size=    1969kB time=00:00:08.20 bitrate=1966.8kbits/s speed=0.269x    frame=  463 fps= 15 q=41.0 size=    1969kB time=00:00:08.40 bitrate=1920.0kbits/s speed=0.27x    frame=  472 fps= 15 q=41.0 size=    1969kB time=00:00:08.58 bitrate=1879.7kbits/s speed=0.271x    frame=  482 fps= 15 q=41.0 size=    1969kB time=00:00:08.78 bitrate=1836.9kbits/s speed=0.273x    frame=  491 fps= 15 q=41.0 size=    1969kB time=00:00:08.96 bitrate=1800.0kbits/s speed=0.273x    frame=  493 fps= 15 q=41.0 size=    1969kB time=00:00:09.00 bitrate=1792.0kbits/s speed=0.267x    frame=  495 fps= 14 q=41.0 size=    1969kB time=00:00:09.04 bitrate=1784.1kbits/s speed=0.263x    frame=  497 fps= 14 q=41.0 size=    1969kB time=00:00:09.08 bitrate=1776.2kbits/s speed=0.26x    frame=  500 fps= 14 q=-1.0 Lsize=    4286kB time=00:00:09.94 bitrate=3532.0kbits/s speed=0.269x    
video:4282kB audio:0kB subtitle:0kB other streams:0kB global headers:0kB muxing overhead: 0.099531%
bench: utime=105.292s
bench: maxrss=1602216kB
[libx264 @ 0x4621120] frame I:3     Avg QP:37.15  size:106028
[libx264 @ 0x4621120] frame P:183   Avg QP:38.80  size: 10673
[libx264 @ 0x4621120] frame B:314   Avg QP:40.78  size:  6728
[libx264 @ 0x4621120] consecutive B-frames: 16.0%  0.8%  0.0% 83.2%
[libx264 @ 0x4621120] mb I  I16..4: 15.7% 76.4%  8.0%
[libx264 @ 0x4621120] mb P  I16..4:  0.1%  0.1%  0.0%  P16..4: 14.3%  0.5%  0.5%  0.0%  0.0%    skip:84.5%
[libx264 @ 0x4621120] mb B  I16..4:  0.2%  0.1%  0.0%  B16..8:  9.7%  0.2%  0.0%  direct: 4.0%  skip:85.8%  L0:32.1% L1:67.8% BI: 0.1%
[libx264 @ 0x4621120] final ratefactor: 32.79
[libx264 @ 0x4621120] 8x8 transform intra:61.2% inter:96.1%
[libx264 @ 0x4621120] coded y,uvDC,uvAC intra: 22.8% 28.0% 6.4% inter: 1.5% 1.5% 0.0%
[libx264 @ 0x4621120] i16 v,h,dc,p: 46% 41%  6%  7%
[libx264 @ 0x4621120] i8 v,h,dc,ddl,ddr,vr,hd,vl,hu: 28% 17% 35%  3%  3%  3%  5%  2%  4%
[libx264 @ 0x4621120] i4 v,h,dc,ddl,ddr,vr,hd,vl,hu: 27% 34%  8%  5%  6%  4%  8%  3%  4%
[libx264 @ 0x4621120] i8c dc,h,v,p: 82%  8% 10%  1%
[libx264 @ 0x4621120] Weighted P-Frames: Y:0.5% UV:0.0%
[libx264 @ 0x4621120] ref P L0: 81.7% 18.3%
[libx264 @ 0x4621120] ref B L0: 91.3%  8.7%
[libx264 @ 0x4621120] ref B L1: 96.7%  3.3%
[libx264 @ 0x4621120] kb/s:3507.09
